<svg width="20" height="20" viewBox="0 0 24 24" fill="none" xmlns="http://www.w3.org/2000/svg">
<path d="M4 7H20C20.55 7 21 6.55 21 6S20.55 5 20 5H4C3.45 5 3 5.45 3 6S3.45 7 4 7Z" fill="currentColor"/>
<path d="M20 9H4C3.45 9 3 9.45 3 10S3.45 11 4 11H20C20.55 11 21 10.55 21 10S20.55 9 20 9Z" fill="currentColor"/>
<path d="M20 13H4C3.45 13 3 13.45 3 14S3.45 15 4 15H20C20.55 15 21 14.55 21 14S20.55 13 20 13Z" fill="currentColor"/>
<path d="M20 17H4C3.45 17 3 17.45 3 18S3.45 19 4 19H20C20.55 19 21 18.55 21 18S20.55 17 20 17Z" fill="currentColor"/>
</svg>